<svg width="1001" height="1001" viewBox="0 0 1001 1001" fill="none" xmlns="http://www.w3.org/2000/svg">
<path d="M852.943 852.146H704.758V620.085C704.758 564.747 703.77 493.511 627.689 493.511C550.509 493.511 538.699 553.801 538.699 616.054V852.128H390.519V374.917H532.772V440.132H534.767C563.731 390.609 617.786 360.92 675.123 363.049C825.312 363.049 853.005 461.836 853.005 590.356L852.943 852.146ZM223.319 309.684C176.145 309.684 137.308 270.87 137.308 223.695C137.308 176.52 176.127 137.702 223.301 137.702C270.471 137.702 309.286 176.512 309.295 223.677C309.295 270.843 270.485 309.679 223.319 309.684ZM297.409 852.146H149.073V374.917H297.409V852.146ZM926.813 0.0922846H74.6073C34.6033 -0.35951 1.30008 32.1697 0.8125 72.1737V927.918C1.28219 967.945 34.5809 1000.51 74.6073 1000.08H926.813C966.938 1000.59 1000.35 968.025 1000.89 927.918V72.1155C1000.35 32.0265 966.893 -0.435555 926.813 0.0922846Z" fill="#0A66C2"/>
</svg>
