<?xml version="1.0" encoding="utf-8"?>
<!-- Generator: Adobe Illustrator 26.3.1, SVG Export Plug-In . SVG Version: 6.00 Build 0)  -->
<svg version="1.1" id="Layer_1" xmlns="http://www.w3.org/2000/svg" xmlns:xlink="http://www.w3.org/1999/xlink" x="0px" y="0px"
	 viewBox="0 0 543 523" style="enable-background:new 0 0 543 523;" xml:space="preserve">
<style type="text/css">
	.st0{fill:#EBEBEB;}
	.st1{fill:#263238;}
	.st2{opacity:0.3;}
	.st3{opacity:0.3;fill:#FFC727;enable-background:new    ;}
	.st4{fill:#FFC727;}
	.st5{fill:#FFFFFF;}
	.st6{opacity:0.41;fill:#FFC727;enable-background:new    ;}
	.st7{opacity:0.1;}
	.st8{fill:#222221;}
	.st9{fill:#455A64;}
	.st10{fill:#F1D1C5;}
	.st11{opacity:9.000000e-02;}
	.st12{opacity:0.2;}
	.st13{fill:#F7A9A0;}
	.st14{fill:#37474F;}
	.st15{fill:#A6A6A6;}
	.st16{fill:#FF9ABB;}
</style>
<path class="st0" d="M441.1,84.5l95.4-0.1c0,0-4.8-6.1-10-6.9c0,0-10.2-30.3-27.3-30.5c-15.8-0.2-22.2,18.7-22.2,18.7
	s-7.4-8.4-14.4-4.6c-7,3.9-11,14.9-11,14.9S444,80.2,441.1,84.5z"/>
<path class="st0" d="M238.1,101.6l-120.7,0.2c0,0,0-7.7,16.6-9.3c0,0,15.1-33.7,38.3-29.2c14.4,2.8,21.8,22.6,21.8,22.6
	s10.9-15.6,19.6-12.6c8.7,3,13.9,19.6,13.9,19.6S236.7,97.3,238.1,101.6z"/>
<path class="st0" d="M419.5,189.9l-82.1,0.1c0,0,7.7-7.2,11.2-7.2c3.4,0,13.5-24.2,26.3-23.2c12.8,1,19.6,19,19.6,19
	S410.2,173.7,419.5,189.9z"/>
<path class="st0" d="M76.8,167.3l-70.2,0.1c0,0,3.5-4.6,7.4-5.1c0,0,7.4-22.3,20-22.5c11.6-0.2,16.3,13.7,16.3,13.7
	s5.4-6.2,10.6-3.4c5.2,2.8,8.1,11,8.1,11S74.7,164.1,76.8,167.3z"/>
<path class="st1" d="M0.9,474l67.7-0.3l67.7-0.1l135.3-0.2l135.3,0.2l67.7,0.1l67.7,0.3l-67.7,0.3l-67.7,0.1l-135.3,0.2l-135.3-0.2
	l-67.7-0.1L0.9,474z"/>
<path class="st0" d="M309,522.9c124,0,224.5-9.8,224.5-21.8c0-12-100.5-21.8-224.5-21.8s-224.5,9.8-224.5,21.8
	C84.4,513.2,185,522.9,309,522.9z"/>
<g class="st2">
	<path class="st3" d="M137.2,53.1c0,13.7-5.4,26.8-15.1,36.4c-9.7,9.7-22.8,15.1-36.4,15.1c-28.5,0-52.9-23.1-52.9-51.5
		c0-28.5,24.3-52.9,52.8-52.9C114.2,0.2,137.2,24.6,137.2,53.1z"/>
</g>
<g class="st2">
	<path class="st3" d="M84.5,95.2c-11.2,0-21.9-4.5-29.9-12.4C46.7,74.9,42.3,64.2,42.3,53c0-23.3,18.9-43.3,42.2-43.3
		c23.3,0,43.3,20,43.3,43.3S107.8,95.2,84.5,95.2z"/>
</g>
<path id="_x3C_Sun_x3E_" class="st4" d="M85.6,89c19.9,0,36-16.1,36-36c0-19.9-16.1-36-36-36s-36,16.1-36,36
	C49.6,72.9,65.7,89,85.6,89z"/>
<path class="st5" d="M189.8,435.9l-5.4,61.6h146c0,0-16.3-123.2-16.3-124.3c0-1.1,29.7-38.8,23.2-118.8c-8.1-99.7-78-134-148.2-134
	c-70.2,0-119.5,64.9-126.4,111.2L36.9,335.9l33.7,4.7c0,0,1.4,70.6,19.6,88.7C108.4,447.5,189.8,435.9,189.8,435.9z"/>
<path class="st6" d="M189.8,435.9l-5.4,61.6h146c0,0-16.3-123.2-16.3-124.3c0-1.1,29.7-38.8,23.2-118.8c-8.1-99.7-78-134-148.2-134
	c-70.2,0-119.5,64.9-126.4,111.2L36.9,335.9l33.7,4.7c0,0,1.4,70.6,19.6,88.7C108.4,447.5,189.8,435.9,189.8,435.9z"/>
<path class="st4" d="M316.7,257.2c-2.7,12.4-19.1,18.4-19.1,18.4c-1,2.2,4.6,45.9,6.1,48.3c1.6,2.5-7.7,8.9-8.9,7.5
	c-1.2-1.4-12-29.8-34.4-34.9c-3.4,3.9-7.6,7-12.3,9.2c-4.7,2.2-9.8,3.3-15,3.4c-18,0.4-31.2-12.5-31.2-12.5s-12.7,18.8-39.4,13.9
	c-26.7-4.8-32.3-25.9-32.3-25.9s-34.5,10.4-47.7-17.8c-10.1-21.6,1-37.3,6.7-43.4c0.9-1,1.9-2,3-2.9l0,0c0,0-2.8-26.1,13.3-39.9
	c16.2-13.7,37.5-12.1,37.5-12.1s8.6-26.5,33.3-31.6c24.7-5.2,39.7,9.2,39.7,9.2c7.3-3.2,15.3-4.9,23.3-5c8,0,16,1.6,23.3,4.7
	c25.6,10.7,24.9,36.2,24.9,36.2s18.7,6.1,24.8,21.4c6.2,15.2-3.9,30.5-3.9,30.5S319.4,244.8,316.7,257.2z"/>
<g class="st7">
	<g class="st7">
		<path class="st8" d="M260.4,296.5c-3.4,3.9-7.6,7-12.3,9.2c-4.7,2.2-9.8,3.3-15,3.4c-18,0.4-31.2-12.5-31.2-12.5
			s-12.7,18.8-39.4,13.9c-26.7-4.8-32.3-25.9-32.3-25.9s-34.5,10.4-47.7-17.8c-10.1-21.6,1-37.3,6.7-43.4l3-2.9
			c-0.2,0.4-9.6,26.7,7.1,43.2c16.7,16.5,40.9,5.7,40.9,5.7s3.1,26,23.8,32c23,6.6,38-10.9,38-10.9S229,320,260.4,296.5z"/>
	</g>
</g>
<g class="st7">
	<path class="st8" d="M294.9,331.4c-1.2-1.4-12-29.8-34.4-34.9c0,0,18.4-10.8,26.9-3.2C295.8,300.8,294.9,331.4,294.9,331.4z"/>
</g>
<path class="st4" d="M270.3,126.2c1.3-0.7,3.5-1.8,5-1.5c0.3,0.1,0.5,0.2,0.7,0.4c0.2,0.2,0.4,0.4,0.5,0.7s0.1,0.5,0.1,0.8
	c0,0.3-0.1,0.5-0.2,0.8c-0.9,1.5-2.2,2.8-3.8,3.6c-0.8,0.4-1.7,0.7-2.6,0.7c-1,0.4-2,0.5-3.1,0.5h-0.2c0,0-0.1,0-0.1,0
	c0,0-0.1,0-0.1,0s-0.1,0-0.1-0.1c0,0,0-0.1,0-0.1l-0.2-0.1C263.8,130.8,269.4,126.8,270.3,126.2z"/>
<g class="st2">
	<path class="st8" d="M270.3,126.2c1.3-0.7,3.5-1.8,5-1.5c0.3,0.1,0.5,0.2,0.7,0.4c0.2,0.2,0.4,0.4,0.5,0.7s0.1,0.5,0.1,0.8
		c0,0.3-0.1,0.5-0.2,0.8c-0.9,1.5-2.2,2.8-3.8,3.6c-0.8,0.4-1.7,0.7-2.6,0.7c-1,0.4-2,0.5-3.1,0.5h-0.2c0,0-0.1,0-0.1,0
		c0,0-0.1,0-0.1,0s-0.1,0-0.1-0.1c0,0,0-0.1,0-0.1l-0.2-0.1C263.8,130.8,269.4,126.8,270.3,126.2z"/>
</g>
<path class="st4" d="M243.5,131.3c-0.6,1.6-1.6,4.5-0.4,6.1c0.1,0.1,0.2,0.2,0.3,0.2c0.1,0,0.2,0.1,0.4,0c0.7-0.2,1.3-0.7,1.7-1.3
	c1.5-1.5,2.7-3.4,3.4-5.4c0.5-1.4-0.2-3.5-2-3.5C245,127.5,244,129.9,243.5,131.3z"/>
<g class="st2">
	<path class="st8" d="M243.5,131.3c-0.6,1.6-1.6,4.5-0.4,6.1c0.1,0.1,0.2,0.2,0.3,0.2c0.1,0,0.2,0.1,0.4,0c0.7-0.2,1.3-0.7,1.7-1.3
		c1.5-1.5,2.7-3.4,3.4-5.4c0.5-1.4-0.2-3.5-2-3.5C245,127.5,244,129.9,243.5,131.3z"/>
</g>
<path class="st4" d="M229.9,145c0.4,1.4,1.9,3,2.8,1c0-0.1,0-0.1,0-0.2c0-0.1,0-0.1,0-0.2c1.2-2.5,2.5-5.1,1.2-7.8
	c-0.8-1.8-2.7-1.9-3.9-0.5C228.2,139.3,229.1,142.7,229.9,145z"/>
<g class="st2">
	<path class="st8" d="M229.9,145c0.4,1.4,1.9,3,2.8,1c0-0.1,0-0.1,0-0.2c0-0.1,0-0.1,0-0.2c1.2-2.5,2.5-5.1,1.2-7.8
		c-0.8-1.8-2.7-1.9-3.9-0.5C228.2,139.3,229.1,142.7,229.9,145z"/>
</g>
<path class="st9" d="M267.7,132.1c-2.1,1.5-6.4,2.5-7.8,2.7c-0.5,0.4-9.2,4.6-12.3,7.3c-2.1,1.8-4.1,3.7-5.8,5.8
	c3.6-2.3,7.5-4.2,11.5-5.8c3.7-1.4,8-1.9,11.7-0.3c0,0.1-4.8,2.3-6.9,3.3c-2.1,1.1-3.7,2.3-5.7,3.1c-3.7,1.4-7.8,1.8-11.7,1.1
	c0,0-0.1,0-0.1-0.1c-2.5,3.2-4.5,6.8-6,10.6c-3.5,9.8-3.3,19.8-1.9,29.1c-0.1-0.2-0.2-0.3-0.4-0.5c-0.4-0.5-0.8-1-1.2-1.4
	c-0.4-2.9-0.6-5.8-0.7-8.7c0,0,0-0.1,0-0.1c-3.3-1.7-6-4.5-7.6-7.8c-1.6-4.1-2.8-8.3-3.7-12.6c4,2.2,7.2,5.7,9,9.9
	c1,2.4,1.9,4.8,2.5,7.4c0.1-1.4,0.1-2.8,0.3-4.1c-0.5-4.9-0.5-9.8-0.2-14.7c0.1-2.1,0.4-4.3,0.8-6.4c-0.5-1.3-0.9-2.7-1.1-4.1
	c0-0.5,0.1-1,0.3-1.4c0.2-0.5,0.6-0.9,1-1.1s1-0.3,1.5-0.1c0.1,0,0.2,0.1,0.2,0.1c0.1,0.1,0.1,0.2,0.1,0.3c0,0.3,0,0.5,0,0.8
	c-0.3,1.9-0.7,3.7-1.2,5.5c-0.5,2.8-0.9,5.6-1,8.5c-0.1,3,0,6,0.1,9c0.5-2.3,1.1-4.5,1.9-6.7c0.7-4.3,2-8.5,3.9-12.4
	c1.2-2.4,2.6-4.7,4.1-7c0.2-1.7,0.6-3.4,1.2-5c0.4-1.1,1.1-1.9,1.9-1.8c1.3,0,1.4,1,0.9,2.1c-0.7,1.4-1.5,2.7-2.5,3.9
	c-2.6,3.8-4.9,7.8-6.6,12c-0.5,1.3-0.9,2.6-1.2,3.9c3.1-6.2,7.6-11.5,13.1-15.6c3.7-2.5,7.7-4.8,11.8-6.6c1.8-1.3,3.5-2.8,5.3-4.3
	c0.5-0.6,1.3-1,2-1.2c0.2,0,0.4,0,0.6,0.1s0.4,0.2,0.5,0.4C269.4,130.3,268.8,131.3,267.7,132.1z"/>
<g class="st7">
	<g class="st7">
		<path class="st8" d="M202.9,183.2c3.2-1.4,6.7-2.3,10.2-2.5c1.8-0.1,3.6-0.1,5.4,0.1c1.8,0.2,3.6,0.7,5.3,1.3
			c1.7,0.7,3.3,1.6,4.8,2.7c1.4,1.1,2.7,2.4,3.9,3.8c2.3,2.7,3.9,5.9,4.9,9.3c-1.7-3-3.8-5.7-6.2-8.2c-2.3-2.4-5.1-4.3-8.2-5.5
			c-3.2-1.1-6.5-1.7-9.8-1.8C209.7,182.3,206.2,182.6,202.9,183.2L202.9,183.2z"/>
	</g>
	<g class="st7">
		<path class="st8" d="M258.4,193.5c-1.8-1.1-3.8-1.9-5.8-2.6c-1.9-0.6-4-1-6-1.1c-0.5,0-1,0-1.5,0c-0.5,0-1,0-1.5,0l-1.5,0.1
			c-0.5,0.1-1,0.2-1.5,0.3l-0.8,0.1l-0.8,0.2l-1.5,0.4c-1,0.3-2,0.6-3.1,0.9c0.9-0.7,1.8-1.3,2.7-1.9c1-0.5,2-1,3.1-1.3
			c0.5-0.2,1.1-0.3,1.6-0.5l1.7-0.3c0.6-0.1,1.1-0.2,1.7-0.1c0.6,0,1.1,0,1.7,0c2.3,0.1,4.5,0.7,6.5,1.8
			C255.3,190.2,257,191.7,258.4,193.5L258.4,193.5z"/>
	</g>
</g>
<path class="st4" d="M306.4,188.6c-3.6,2-7.2,3.8-11,5.4c-1.8,0.9-3.7,1.6-5.6,2.2c-1.1,0.3-2.2,0.2-3.2-0.1
	c-0.6-0.1-1.1-0.4-1.5-0.9c-0.1-0.1-0.1-0.2-0.2-0.4c-1.6-1.4-2.1-3.8-2.6-5.9c-1-4.3-1.6-8.7-1.7-13.1c0-1.6-0.3-3.7,0.4-5.2
	c0.5-0.9,1-1,1.7-1.5c1.7-1.2,1.7-2.8,3-4.3c0.3-0.4,0.7-0.8,1.1-1c0.5-0.2,1-0.3,1.5-0.3c2.6,0.5,2.3,5.5,2.5,7.4
	c0.3,3.8,0.3,7.6,0,11.4c-0.2,3.4-0.7,6.8-1.6,10.1c3.5-5.2,7.6-9.9,12.4-13.9c1.7-1.5,4.5-3.9,6.9-3c1,0.4,0.9,1.1,1.5,1.7
	c1.4,1.1,2.9,0,4.3,0.7C320,180.4,308.3,187.6,306.4,188.6z"/>
<g class="st2">
	<path class="st8" d="M306.4,188.6c-3.6,2-7.2,3.8-11,5.4c-1.8,0.9-3.7,1.6-5.6,2.2c-1.1,0.3-2.2,0.2-3.2-0.1
		c-0.6-0.1-1.1-0.4-1.5-0.9c-0.1-0.1-0.1-0.2-0.2-0.4c-1.6-1.4-2.1-3.8-2.6-5.9c-1-4.3-1.6-8.7-1.7-13.1c0-1.6-0.3-3.7,0.4-5.2
		c0.5-0.9,1-1,1.7-1.5c1.7-1.2,1.7-2.8,3-4.3c0.3-0.4,0.7-0.8,1.1-1c0.5-0.2,1-0.3,1.5-0.3c2.6,0.5,2.3,5.5,2.5,7.4
		c0.3,3.8,0.3,7.6,0,11.4c-0.2,3.4-0.7,6.8-1.6,10.1c3.5-5.2,7.6-9.9,12.4-13.9c1.7-1.5,4.5-3.9,6.9-3c1,0.4,0.9,1.1,1.5,1.7
		c1.4,1.1,2.9,0,4.3,0.7C320,180.4,308.3,187.6,306.4,188.6z"/>
</g>
<path class="st1" d="M302.6,169.4c-3.9,7.8-8.2,15.3-11.9,23.1c-0.1,0.2-0.4,0-0.3-0.1c2.9-7.2,6.8-13.9,10.3-20.8
	c1.9-3.4,3.3-7,4.2-10.7c0.6-2.5,0.7-4.9,2.5-6.9c0.1-0.1,0.2-0.2,0.3-0.2s0.2-0.1,0.3,0c0.1,0,0.2,0.1,0.3,0.1
	c0.1,0.1,0.2,0.2,0.2,0.3c1,2.5-1.9,6-3.4,8.4C304.5,164.9,303.7,167.2,302.6,169.4L302.6,169.4z"/>
<path class="st1" d="M287.4,168.3c-2.8,7.2-3.4,14.9-4.3,22.5c0,0,0,0.1,0,0.1c0,0-0.1,0-0.1,0c0,0-0.1,0-0.1,0c0,0,0-0.1,0-0.1
	c0.1-10,2.5-21.2,7.8-29.8c0.5-0.8,3.6-5.5,4.8-3.9c0.7,0.8-0.8,2.2-1.3,2.7c-1.5,1.6-3.4,2.7-4.8,4.5
	C288.5,165.6,287.9,167,287.4,168.3z"/>
<path class="st1" d="M315.5,170.8c-0.7,3.4-2.1,6.7-4,9.6c-3.9,6.3-9.5,11.3-15.5,15.5c-0.1,0.1-0.3-0.1-0.2-0.2
	c5.7-4.6,11.3-9.4,15.2-15.6c1-1.6,1.9-3.3,2.6-5.1l0.2-0.4c0,0,0,0,0,0c0,0,0,0,0,0c0.3-2.1,0.3-4.2,0.1-6.3
	c-0.2-0.9,0-1.8,0.4-2.6c0,0,0-0.1,0.1-0.1c0,0,0.1,0,0.1,0C316.3,165.9,315.7,169.5,315.5,170.8z"/>
<path class="st4" d="M312,194.7c-7.6,4.2-16.6,5.6-24.5,8.8c-1.8,0.7-3.6,1.6-5.4,2.5c-0.5,0.3-1.1,0.6-1.7,0.8
	c-0.4,0.1-0.7,0.2-1.1,0.1c-0.2,0-0.3-0.1-0.5-0.2c-0.3-0.1-0.5-0.4-0.6-0.6c-0.2-0.2-0.3-0.5-0.3-0.8c-0.1-1.2-0.1-2.5,0.2-3.7
	c-0.1-1.3-0.3-2.6-0.5-3.8c-0.2-1.7-0.4-3.4-0.7-5c-0.6-3.6-1.5-7-2.4-10.5c-0.9-2.9-1.3-6-1.2-9.1c0-1.6,0.3-4.7,1.7-5.7
	c1.4-1.1,2.2-0.1,2.7,1.1c0.5,1.2,0.5,2.5,0.9,3.6c0.6,1.8,1.6,1.9,2.8,3c0.7,0.8,1.2,1.7,1.5,2.7c0.3,1,0.4,2,0.3,3.1
	c-0.1,1.7-0.3,3.3-0.5,5c0.5-1.5,1-3,1.6-4.4c1-2.6,2-5.8,4-7.9c0.6-0.7,1.4-1.2,2.2-1.6c1.9-0.5,3.6-1.5,4.9-2.9
	c1.3-1.5,3-4.1,5.4-3.8c2.3,0.4,2.1,2.7,2.2,4.5c0.3,3.3,2.9,5,2.3,8.6c-0.5,2.9-2.5,5.4-4.3,7.6c-1.4,1.7-2.9,3.4-4.5,4.9
	c2.2-1.3,4.5-2.3,6.9-3c1-0.4,2.2-0.5,3.3-0.3c1.6,0.4,1.7,1.4,3.7,1.2c1.5-0.2,4.8-1.2,5.6,0.8C316.9,191.8,313.5,193.8,312,194.7z
	"/>
<g class="st7">
	<path class="st8" d="M312,194.7c-7.6,4.2-16.6,5.6-24.5,8.8c-1.8,0.7-3.6,1.6-5.4,2.5c-0.5,0.3-1.1,0.6-1.7,0.8
		c-0.4,0.1-0.7,0.2-1.1,0.1c-0.2,0-0.3-0.1-0.5-0.2c-0.3-0.1-0.5-0.4-0.6-0.6c-0.2-0.2-0.3-0.5-0.3-0.8c-0.1-1.2-0.1-2.5,0.2-3.7
		c-0.1-1.3-0.3-2.6-0.5-3.8c-0.2-1.7-0.4-3.4-0.7-5c-0.6-3.6-1.5-7-2.4-10.5c-0.9-2.9-1.3-6-1.2-9.1c0-1.6,0.3-4.7,1.7-5.7
		c1.4-1.1,2.2-0.1,2.7,1.1c0.5,1.2,0.5,2.5,0.9,3.6c0.6,1.8,1.6,1.9,2.8,3c0.7,0.8,1.2,1.7,1.5,2.7c0.3,1,0.4,2,0.3,3.1
		c-0.1,1.7-0.3,3.3-0.5,5c0.5-1.5,1-3,1.6-4.4c1-2.6,2-5.8,4-7.9c0.6-0.7,1.4-1.2,2.2-1.6c1.9-0.5,3.6-1.5,4.9-2.9
		c1.3-1.5,3-4.1,5.4-3.8c2.3,0.4,2.1,2.7,2.2,4.5c0.3,3.3,2.9,5,2.3,8.6c-0.5,2.9-2.5,5.4-4.3,7.6c-1.4,1.7-2.9,3.4-4.5,4.9
		c2.2-1.3,4.5-2.3,6.9-3c1-0.4,2.2-0.5,3.3-0.3c1.6,0.4,1.7,1.4,3.7,1.2c1.5-0.2,4.8-1.2,5.6,0.8C316.9,191.8,313.5,193.8,312,194.7
		z"/>
</g>
<path class="st10" d="M277.2,182.1L277.2,182.1C277.2,182.2,277.2,182.1,277.2,182.1z"/>
<path class="st5" d="M305.8,194.4c-7.5,4.8-20.4,3.8-25.4,11.9v0.4c-0.4,0.1-0.7,0.2-1.1,0.1c-1.1-2.8-0.6-6-0.5-9
	c0.3-4.6-0.1-9.1-0.9-13.6c0-0.1,0.1-0.2,0.2,0c1,3.5,1.6,7,1.6,10.6c0.1,3.7-0.9,8.1,0.2,11.7l0.1-0.4c0-4.1,1.7-8.3,3.4-12
	c2.2-4.7,4.9-9.2,7.5-13.7c0.1-0.2,0.4,0,0.3,0.2c-2.3,4.5-4.6,8.9-6.7,13.4c-1.4,2.8-2.5,5.6-3.3,8.6c4.1-9.6,15.4-15.1,18.8-25.1
	c0,0,0.1-0.1,0.1-0.1c0,0,0.1,0,0.1,0c0,0,0.1,0.1,0.1,0.1c0,0,0,0.1,0,0.1c-3.5,10.6-14.9,16.5-19.2,26.6c0.7-0.8,1.5-1.6,2.4-2.2
	c1.8-1.8,3.9-3.3,6.1-4.5c3.7-1.9,7.7-2.9,11.3-5.1c0.1-0.1,0.3,0.1,0.2,0.2c-2.7,2.3-6.3,3.2-9.5,4.7c-1.9,0.9-3.8,1.9-5.5,3.2
	c1-0.5,2.1-0.9,3.2-1.3c5.5-2,11.2-2.9,16.5-5.4c0,0,0.1,0,0.1,0c0,0,0.1,0.1,0.1,0.1C305.8,194.2,305.8,194.3,305.8,194.4
	C305.8,194.3,305.8,194.4,305.8,194.4L305.8,194.4z"/>
<path class="st5" d="M276.7,176.3c-0.2,1.1-0.1,2.3,0.2,3.4c0,0,0,0,0,0c0,0,0,0,0,0s0,0,0,0c0,0,0,0,0,0c-0.1-1.1-0.1-2.2,0-3.3
	C277,176.2,276.7,176.2,276.7,176.3z"/>
<path class="st5" d="M300.4,174c-0.1,0.6-0.1,1.2-0.2,1.9c0,0.2,0.3,0.2,0.3,0.1c0.3-0.6,0.4-1.3,0.3-1.9
	C300.7,173.9,300.5,173.8,300.4,174z"/>
<path class="st5" d="M308.7,192.1c-0.3,0.2-0.6,0.4-0.9,0.6c0,0,0,0,0,0.1c0,0,0,0.1,0,0.1s0,0,0,0.1c0,0,0,0,0.1,0
	c0.4,0,0.8-0.2,1.1-0.5C309.1,192.3,308.9,191.9,308.7,192.1z"/>
<path class="st9" d="M276.6,201.9c0.3,2.9,0.9,6-0.5,8.8c-0.1,0.2,0.1,0.5,0.3,0.3c1.4-1.5,10.7-5.2,10.3-6.7
	c-0.3-1-2.8,0.2-3.2-1.1c0-0.8,0.2-1.6,0.5-2.3c0.2-0.8,0.4-1.5,0.5-2.3c0.1-0.8,0.1-1.6-0.5-1.9c-0.6-0.3-1.5,0.6-2,1.2
	c-0.5,0.6-0.8,1.1-1.2,1.6c-0.4,0.5-1,1.7-1.5,0.7c-0.5-1-0.6-1.9-1.3-2.5C276.2,196.2,276.5,201,276.6,201.9z"/>
<path class="st9" d="M273.2,239.8c-0.4-0.8-0.8-1.6-1.2-2.5c-0.4-0.7-0.8-1.3-1.2-1.9c0-0.5,0.1-1.1,0.1-1.6c0.3-3,0.6-5.9,1.2-8.9
	c0.1-0.8,0.3-1.6,0.5-2.5c0.4-1.9,0.8-3.8,1.2-5.7c0.6-2.8,1.6-5.5,2.9-8c0.5-0.9,1-1.7,1.6-2.5l0.5-0.6l0.6-0.7l0.5-0.5l0.1-0.1
	c0,0,0.1-0.1,0.1-0.1c0.1,0,0.1,0,0.2,0.1c0,0,0.1,0.1,0.1,0.1c0,0.1,0,0.1-0.1,0.2l-0.4,0.6c-0.1,0.1-0.2,0.3-0.3,0.4
	c-0.2,0.2-0.3,0.5-0.5,0.7c-0.2,0.2-0.1,0.2-0.2,0.3c-0.7,1.1-1.3,2.4-1.7,3.6c-1.7,4.5-2.1,9.6-2.7,14.3c-0.3,2.3-0.5,4.6-0.7,6.9
	c0,0.2,0,0.4,0,0.6C273.4,234.6,273.3,237.2,273.2,239.8z"/>
<path class="st9" d="M272.6,225.4c0,0,0.3-10-1.5-15c-1.9-5-7.9-11.5-7.9-11.5c-1.1,4.9-0.7,9.9,0.9,14.6
	C265.7,218.2,268.7,222.3,272.6,225.4L272.6,225.4z"/>
<path class="st9" d="M273.4,232.1c0,0,3.6-9.3,7.4-13.2c3.7-3.9,11.8-7.5,11.8-7.5c-0.9,4.9-3.2,9.4-6.6,13.1
	C282.6,228.2,278.2,230.8,273.4,232.1z"/>
<g class="st7">
	<g class="st7">
		<path class="st8" d="M238.8,224.5c4.1-1,8.3-1.1,12.5-0.5c4.2,0.6,8.3,2.1,11.9,4.3c1.8,1.1,3.5,2.5,5,4c1.5,1.6,2.8,3.3,3.8,5.2
			c2.1,3.7,3.2,7.8,3.3,12c-1-4-2.6-7.7-4.8-11.1c-2.2-3.3-5.1-6.1-8.5-8.2c-0.8-0.5-1.7-1-2.6-1.5c-0.9-0.5-1.8-0.9-2.7-1.2
			c-1.9-0.7-3.8-1.3-5.7-1.8C246.9,224.7,242.9,224.3,238.8,224.5L238.8,224.5z"/>
	</g>
	<g class="st7">
		<path class="st8" d="M298.6,236.5c-2.2-0.5-4.4-0.9-6.7-1.1c-2.2-0.2-4.4-0.1-6.5,0.2c-1.1,0.2-2.1,0.4-3.2,0.7
			c-1,0.3-2,0.8-3,1.2c-2,1-4,2.2-5.8,3.5c1.2-2,2.9-3.7,4.9-5c1-0.7,2.1-1.2,3.2-1.7c1.1-0.4,2.3-0.7,3.5-0.9
			c2.4-0.4,4.8-0.3,7.1,0.3C294.5,234.2,296.6,235.2,298.6,236.5L298.6,236.5z"/>
	</g>
</g>
<path class="st4" d="M96.1,170.1c4.7,3.8,10.7,5.4,16.3,7.1c1.6,0.5,3.2,1,4.7,1.5c1.1,0.5,2.3,0.7,3.4,0.5c2-0.4,2.2-2.2,2.3-4
	c0-0.6,0-1.1,0-1.7v-0.4c0,0,0-0.1,0-0.1c0,0,0-0.1-0.1-0.1c0-0.7-0.1-1.4-0.2-2c-0.3-3.7-0.6-7.4-0.9-11c-0.1-3-0.5-5.9-1.1-8.8
	c-0.3-1-0.6-2.4-1.6-2.9c-0.6-0.2-1.2-0.4-1.8-0.5c-0.5-0.2-1-0.6-1.4-1c-1-1.1-2.8-4.2-4.7-3.2c-1,0.5-1.2,1.8-1.4,2.7
	c-0.5,1.2-1.3,2.3-2.2,3.2c-1.4,1.8-1.1,4.2-0.3,6.2c1.1,2.6,2.5,5.1,4.3,7.4c1.7,2.4,3.6,4.6,5.3,7c1,1.3,1.9,2.7,2.7,4
	c0.4,0.7,0.8,1.4,1.1,2.1c0.3,0.5,0.5,1,0.6,1.5c-2.1-2.6-4.3-5.1-6.7-7.4c-2.5-2.5-4.6-5.4-7.4-7.5c-2.1-1.7-4.6-2.6-7.3-2.7
	c-1.5,0.1-3-0.1-4.4-0.5c-1.3-0.5-2.6-0.9-3.9-1.2c-3-0.4-1.5,3.1-0.8,4.5C91.8,165.6,93.7,168.1,96.1,170.1L96.1,170.1z"/>
<g class="st2">
	<path class="st8" d="M96.1,170.1c4.7,3.8,10.7,5.4,16.3,7.1c1.6,0.5,3.2,1,4.7,1.5c1.1,0.5,2.3,0.7,3.4,0.5c2-0.4,2.2-2.2,2.3-4
		c0-0.6,0-1.1,0-1.7v-0.4c0,0,0-0.1,0-0.1c0,0,0-0.1-0.1-0.1c0-0.7-0.1-1.4-0.2-2c-0.3-3.7-0.6-7.4-0.9-11c-0.1-3-0.5-5.9-1.1-8.8
		c-0.3-1-0.6-2.4-1.6-2.9c-0.6-0.2-1.2-0.4-1.8-0.5c-0.5-0.2-1-0.6-1.4-1c-1-1.1-2.8-4.2-4.7-3.2c-1,0.5-1.2,1.8-1.4,2.7
		c-0.5,1.2-1.3,2.3-2.2,3.2c-1.4,1.8-1.1,4.2-0.3,6.2c1.1,2.6,2.5,5.1,4.3,7.4c1.7,2.4,3.6,4.6,5.3,7c1,1.3,1.9,2.7,2.7,4
		c0.4,0.7,0.8,1.4,1.1,2.1c0.3,0.5,0.5,1,0.6,1.5c-2.1-2.6-4.3-5.1-6.7-7.4c-2.5-2.5-4.6-5.4-7.4-7.5c-2.1-1.7-4.6-2.6-7.3-2.7
		c-1.5,0.1-3-0.1-4.4-0.5c-1.3-0.5-2.6-0.9-3.9-1.2c-3-0.4-1.5,3.1-0.8,4.5C91.8,165.6,93.7,168.1,96.1,170.1L96.1,170.1z"/>
</g>
<path class="st1" d="M119.5,174.7c0.6-4,0.6-8.1,0-12.1c-1.3-7.7-4.1-15.2-8-21.9c-0.8-1.5-1.7-2.9-2.9-4.1c-0.5-0.5-1.7-1-1.6,0.2
	c0.2,1.1,0.9,2.2,1.9,2.8c1.1,0.8,2.1,1.7,3,2.6c0.6,1.2,1.2,2.5,1.9,3.7c1.5,3.1,2.8,6.3,3.8,9.6
	C119.6,161.7,120.3,168.3,119.5,174.7L119.5,174.7z"/>
<path class="st1" d="M118.7,176.5c-4-0.6-7.9-1.8-11.6-3.5c-7-3.5-13.3-8.3-18.7-14c-1.2-1.2-2.3-2.5-3.1-4
	c-0.3-0.6-0.5-1.9,0.6-1.5c1.1,0.4,1.8,1.7,2.2,2.6c0.4,1.3,1,2.5,1.7,3.7c1,1,2,1.9,3,2.8c2.5,2.3,5.2,4.5,8.1,6.4
	C106.1,172.8,112.3,175.4,118.7,176.5C118.7,176.5,118.8,176.5,118.7,176.5z"/>
<path class="st1" d="M98.6,149.6c2.1,2.8,4.3,5.6,6.6,8.3c4.5,5.3,9.3,10.4,14.3,15.3c0,0,0.1,0,0-0.1c-4.9-4.9-9.6-10.1-14-15.5
	c-2.2-2.7-4.4-5.4-6.5-8.1c-0.4-0.6-0.8-1.1-1.2-1.7c-0.7-1.8-1.2-3.5-2.1-5.3c-0.4-0.8-1.4-2.8-2.4-2.1
	C92.1,141.3,96.5,146.9,98.6,149.6z"/>
<path class="st4" d="M89.1,169.8c1.3,2,3,3.8,5,5.3c4.2,3.2,9,5.4,14.1,6.7c4.8,1.4,9.9,1.8,14.9,1.1h0.2c0,0,0,0,0.1,0
	c0,0,0,0,0.1,0c0.1,0,0.3-0.1,0.4-0.1c0,0,0.5-0.1,0.4-0.1c0.2-0.3,0.4-0.6,0.7-0.8c0.9-1,1.7-2.1,2.4-3.2c0.7-1.5,1.2-3.1,1.4-4.8
	c0.6-3.8,0-7.7,0.5-11.5c0.4-3.3,1.6-6.5,1.5-9.8c0-0.7-0.1-1.9-1.2-1.7c-1.3,0.3-1.5,2.1-2.4,2.8c-0.1,0.2-0.2,0.3-0.5,0.2
	c-0.3,0.1-0.5,0.1-0.6-0.3c-0.1-0.2-0.2-0.4-0.3-0.6c-0.2-0.4-0.4-0.9-0.5-1.4c-0.3-0.8-0.5-1.6-0.7-2.5c-0.2-1.5-0.8-2.9-1.6-4.2
	c-0.1-0.2-0.3-0.3-0.5-0.4c-0.2-0.1-0.4-0.1-0.6-0.1c-0.2,0-0.4,0.1-0.6,0.2c-0.2,0.1-0.3,0.3-0.4,0.5c-0.5,1.4-0.6,2.8-0.5,4.2
	c0,1-0.2,2.5-1.6,2.1c-0.6-0.1-1.1-0.4-1.6-0.6c-0.5-0.1-1,0-1.4,0.3c-0.4,0.3-0.8,0.7-0.9,1.1c-0.6,1.4-0.1,3.2,0.2,4.6
	c0.4,1.8,0.9,3.6,1.6,5.4c1.2,3.4,3.9,9.7,5.3,13c0.8,1.8-7.8-16.8-11-20.6c-0.8-0.8-1.9-1.2-3-1.2c-0.7,0-1.4,0.3-2.1,0.3
	c-0.7-0.1-1.4-0.3-2.1-0.6c-1.8-0.8-4.8-1.7-5.3,1c-0.2,1.2,0.3,2.5,0.4,3.7c-0.2,1.2-0.6,2.3-1.2,3.3c-1,2.6,1.4,4.9,3.1,6.7
	c2.1,2.2,4.4,4.1,6.9,5.9c1.5,1.1,7.4,4.9,8.9,5.9c-2-1-8.3-4.9-10.3-6.1c-1.3-0.7-2.6-1.5-3.8-2.3c-1.3-0.8-2.2-1.6-3.4-2.3
	c-1-0.5-2-0.7-3.1-0.6c-1.5-0.1-2.9-0.4-4.3-0.8c-0.8-0.1-2.2-0.6-2.7,0.2C88.5,168.4,88.7,169.3,89.1,169.8z"/>
<g class="st11">
	<path class="st8" d="M89.1,169.8c1.3,2,3,3.8,5,5.3c4.2,3.2,9,5.4,14.1,6.7c4.8,1.4,9.9,1.8,14.9,1.1h0.2c0,0,0,0,0.1,0
		c0,0,0,0,0.1,0c0.1,0,0.3-0.1,0.4-0.1c0,0,0.5-0.1,0.4-0.1c0.2-0.3,0.4-0.6,0.7-0.8c0.9-1,1.7-2.1,2.4-3.2c0.7-1.5,1.2-3.1,1.4-4.8
		c0.6-3.8,0-7.7,0.5-11.5c0.4-3.3,1.6-6.5,1.5-9.8c0-0.7-0.1-1.9-1.2-1.7c-1.3,0.3-1.5,2.1-2.4,2.8c-0.1,0.2-0.2,0.3-0.5,0.2
		c-0.3,0.1-0.5,0.1-0.6-0.3c-0.1-0.2-0.2-0.4-0.3-0.6c-0.2-0.4-0.4-0.9-0.5-1.4c-0.3-0.8-0.5-1.6-0.7-2.5c-0.2-1.5-0.8-2.9-1.6-4.2
		c-0.1-0.2-0.3-0.3-0.5-0.4c-0.2-0.1-0.4-0.1-0.6-0.1c-0.2,0-0.4,0.1-0.6,0.2c-0.2,0.1-0.3,0.3-0.4,0.5c-0.5,1.4-0.6,2.8-0.5,4.2
		c0,1-0.2,2.5-1.6,2.1c-0.6-0.1-1.1-0.4-1.6-0.6c-0.5-0.1-1,0-1.4,0.3c-0.4,0.3-0.8,0.7-0.9,1.1c-0.6,1.4-0.1,3.2,0.2,4.6
		c0.4,1.8,0.9,3.6,1.6,5.4c1.2,3.4,3.9,9.7,5.3,13c0.8,1.8-7.8-16.8-11-20.6c-0.8-0.8-1.9-1.2-3-1.2c-0.7,0-1.4,0.3-2.1,0.3
		c-0.7-0.1-1.4-0.3-2.1-0.6c-1.8-0.8-4.8-1.7-5.3,1c-0.2,1.2,0.3,2.5,0.4,3.7c-0.2,1.2-0.6,2.3-1.2,3.3c-1,2.6,1.4,4.9,3.1,6.7
		c2.1,2.2,4.4,4.1,6.9,5.9c1.5,1.1,7.4,4.9,8.9,5.9c-2-1-8.3-4.9-10.3-6.1c-1.3-0.7-2.6-1.5-3.8-2.3c-1.3-0.8-2.2-1.6-3.4-2.3
		c-1-0.5-2-0.7-3.1-0.6c-1.5-0.1-2.9-0.4-4.3-0.8c-0.8-0.1-2.2-0.6-2.7,0.2C88.5,168.4,88.7,169.3,89.1,169.8z"/>
</g>
<path class="st5" d="M122.4,153.2c0-0.1,0.2-0.1,0.2,0c-0.1,2.1-0.1,4.3,0,6.5c0,0,0,0,0,0.1c0,0,0,0-0.1,0c0,0-0.1,0-0.1,0
	c0,0,0,0,0-0.1C122,157.5,122,155.3,122.4,153.2L122.4,153.2z"/>
<path class="st5" d="M103.6,161.9c0.6,0.4,1.1,0.9,1.6,1.4c0,0.1,0,0.2-0.1,0.1C104.5,163,104,162.5,103.6,161.9
	C103.5,161.9,103.5,161.8,103.6,161.9z"/>
<path class="st5" d="M98.8,172.2l0.9,0.6c0.1,0.1,0,0.3-0.1,0.2l-0.8-0.6C98.7,172.3,98.8,172.2,98.8,172.2z"/>
<path class="st9" d="M120,184.5c2.6,0.9,5.6,1.6,7.1,4.1c0,0,0.1,0.1,0.1,0.1c0,0,0.1,0,0.2,0c0,0,0.1-0.1,0.1-0.1c0,0,0-0.1,0-0.2
	c-0.4-2,2.1-12.3,0.5-12.5c-1-0.1-1.5,2.8-2.8,2.6c-0.6-0.1-1.2-1-1.6-1.4c-0.5-0.5-1.1-1-1.6-1.4c-0.5-0.4-1.3-0.8-1.9-0.3
	c-0.6,0.5-0.4,1.7-0.2,2.5c0.2,0.8,0.4,1.2,0.7,1.8c0.2,0.5,0.8,1.7-0.3,1.8c-1-0.1-2,0-2.9,0.2C115,182.5,119.2,184.1,120,184.5z"
	/>
<path class="st9" d="M147.1,218.3L147.1,218.3l-1.9-0.3c-0.3,0-0.6,0-1,0c-0.5-1.2-1-2.3-1.5-3.4c-0.3-0.6-0.6-1.2-0.9-1.8
	c-1-2-2.1-4-3.3-5.8c-3.9-6.1-7.9-12-11.3-18.3c-1.1-2-2.1-4-3-6.1c-0.1-0.1-0.1-0.3-0.2-0.4c-0.2-0.6-0.5-1.2-0.7-1.8
	c0-0.1,0.2-0.2,0.2-0.1c0.2,0.5,0.4,0.9,0.6,1.4c0,0.1,0.1,0.2,0.2,0.4c0,0.1,0,0,0,0s0.1,0.2,0.2,0.3c0.9,1.8,1.9,3.6,2.9,5.3
	c2.9,4.7,6.4,9.1,9.7,13.6c0.2,0.3,0.5,0.7,0.7,1c2.2,2.9,4.1,5.9,5.9,9C145,213.5,146.1,215.9,147.1,218.3L147.1,218.3z"/>
<path class="st9" d="M143.8,214.4c0,0-7.4-6.7-12.4-8.6c-5-1.8-13.9-1.5-13.9-1.5c3,4,7.1,7,11.7,8.8
	C133.8,214.9,138.9,215.4,143.8,214.4L143.8,214.4z"/>
<path class="st9" d="M137.4,202.6c0,0-1.7-9.8-0.5-15.1c1.2-5.2,6.2-12.5,6.2-12.5c1.7,4.7,2.1,9.7,1.1,14.6
	C143.2,194.5,140.8,199,137.4,202.6L137.4,202.6z"/>
<path class="st4" d="M144.1,140.6c1.6-0.4,2.6,2.9,2.9,3.9c0.6,2.7,0.3,5.6-0.9,8.1c0,0.2-0.1,0.4-0.2,0.5c0,0,0,0,0,0.1
	c0,0.1,0,0,0,0l-0.2,0.2c-0.1,0.1-0.2,0.1-0.3,0.1c-0.1,0-0.2,0-0.3,0c-2-0.9-1.9-3.8-1.9-5.6C143.1,146.8,142.2,141.1,144.1,140.6z
	"/>
<g class="st12">
	<path class="st8" d="M144.1,140.6c1.6-0.4,2.6,2.9,2.9,3.9c0.6,2.7,0.3,5.6-0.9,8.1c0,0.2-0.1,0.4-0.2,0.5c0,0,0,0,0,0.1
		c0,0.1,0,0,0,0l-0.2,0.2c-0.1,0.1-0.2,0.1-0.3,0.1c-0.1,0-0.2,0-0.3,0c-2-0.9-1.9-3.8-1.9-5.6C143.1,146.8,142.2,141.1,144.1,140.6
		z"/>
</g>
<path class="st4" d="M133.6,158.1c-1,2.7,0.8,5.3,2.5,7.2c0.6,0.7,2.5,2.8,3.3,1.8c0.1,0,0.1,0,0.2,0c0.1,0,0.1-0.1,0.1-0.1
	c0.2-1.1,0.1-2.2-0.4-3.2c-0.6-1.7-1.2-3.4-2-5.1C136.5,157,134.4,155.8,133.6,158.1z"/>
<g class="st12">
	<path class="st8" d="M133.6,158.1c-1,2.7,0.8,5.3,2.5,7.2c0.6,0.7,2.5,2.8,3.3,1.8c0.1,0,0.1,0,0.2,0c0.1,0,0.1-0.1,0.1-0.1
		c0.2-1.1,0.1-2.2-0.4-3.2c-0.6-1.7-1.2-3.4-2-5.1C136.5,157,134.4,155.8,133.6,158.1z"/>
</g>
<path class="st9" d="M165.7,186.5c-1,4-3.3,7.5-6.5,10c0.2,4.1-0.2,8.3-1,12.3c-0.5,0.4-0.9,0.7-1.4,1.1c0.2-1.1,0.4-2.1,0.6-3.2
	c0,0,0-0.1,0-0.1c-6.6-3.5-9.6-10.3-12.1-17.1c0.2,0,10.5,4.3,12.4,15.4c0.6-5.2,0.4-10.5-0.4-15.7c-2.8-8.2-9.8-14-16.6-19.4
	c-1.2-0.8-2.3-1.9-3.1-3.2l0,0c-0.1-0.1-0.1-0.2-0.1-0.3c-0.3-0.7-0.6-2.1,0.3-2.5c0.9-0.4,1.6,0.7,2,1.3c0.1,0.1,0.1,0.2,0.2,0.3
	c1.2,1.7,2.3,3.5,3.4,5.2c2.6,1.9,5,4,7.3,6.3c2.3,2.4,4.3,5.1,5.9,8c-0.1-0.4-0.2-0.9-0.3-1.3c-1.7-6.3-4.2-12.3-7.4-18
	c-1.4-2.4-2.6-5-3.7-7.6c-0.7-1.9-1.1-3.8-1.2-5.8c0-0.5,0.1-1,0.2-1.4c0.3-1,1.2-1.5,1.9-0.5c0.2,0.4,0.4,0.9,0.4,1.4
	c0.1,0.9,0,2,0,2.7c0.1,1.8,0.2,3.6,0.3,5.4c0.6,1.2,1.2,2.3,1.9,3.5c3.7,6,6.6,12.5,8.6,19.3c0.8,2.9,1.4,5.9,1.7,8.9
	c0.3-2.4,0.7-4.7,1.4-7c0.9-3.4,5-9.4,5-9.4C166.4,179,166.5,182.8,165.7,186.5L165.7,186.5z"/>
<g class="st7">
	<g class="st7">
		<path class="st8" d="M119.8,237.4c0.9-4.5,3.1-8.7,6.5-11.8c2.5-2.4,5.4-4.4,8.6-5.7l1.6-0.7l1.7-0.5c2.3-0.6,4.7-0.8,7-0.6
			l1.8,0.2c0.6,0.1,1.1,0.3,1.7,0.4l0.8,0.2l0.8,0.3c0.5,0.2,1.1,0.4,1.6,0.7c4.1,2,7.7,5,10.2,8.8c-3.1-3.1-6.8-5.6-10.9-7.2
			c-4-1.6-8.3-1.8-12.5-0.7c-4.2,1.2-8,3.2-11.4,6C124,229.6,121.4,233.3,119.8,237.4L119.8,237.4z"/>
	</g>
	<g class="st7">
		<path class="st8" d="M182.8,206.4c-3.2-0.5-6.4-0.6-9.5-0.4c-3.1,0.2-6.2,0.8-9.1,2c-2.9,1.2-5.5,2.8-7.8,4.9
			c-2.3,2.2-4.3,4.7-6.1,7.4c1-3.2,2.6-6.1,4.8-8.6c1.1-1.2,2.4-2.4,3.8-3.3c1.4-0.9,2.9-1.7,4.5-2.4
			C169.7,203.6,176.6,203.8,182.8,206.4L182.8,206.4z"/>
	</g>
	<g class="st7">
		<path class="st8" d="M108.4,221.4c1.4-1,3.1-1.7,4.8-2c1.8-0.3,3.6-0.2,5.4,0.3c1.8,0.5,3.4,1.3,4.7,2.6c0.7,0.6,1.3,1.2,1.8,2
			c0.5,0.7,0.9,1.5,1.2,2.3c-0.7-0.5-1.3-1.1-2-1.5c-0.7-0.5-1.3-0.9-2-1.3c-1.3-0.8-2.8-1.4-4.3-1.8c-1.5-0.4-3.1-0.6-4.6-0.7
			C111.7,221.1,110,221.2,108.4,221.4L108.4,221.4z"/>
	</g>
</g>
<g class="st7">
	<g class="st7">
		<path class="st8" d="M183.9,261.9c2.6-1.6,5.4-2.7,8.3-3.2c3-0.6,6-0.7,9.1-0.3c1.5,0.2,3,0.5,4.5,0.9c1.4,0.5,2.8,1.1,4.2,1.8
			c2.7,1.4,5,3.3,7,5.5c-2.5-1.5-5.1-2.9-7.7-4c-1.3-0.5-2.7-1-4-1.3c-1.4-0.3-2.8-0.6-4.2-0.8c-2.8-0.4-5.7-0.4-8.5-0.2
			C189.6,260.6,186.8,261.1,183.9,261.9L183.9,261.9z"/>
	</g>
	<g class="st7">
		<path class="st8" d="M206.6,278.9c1.7-4.8,4.7-9,8.7-12.1c4-3.2,8.8-5.2,13.9-6c5.1-0.8,10.3-0.2,15.1,1.8c2.3,1,4.5,2.4,6.4,4.1
			c1.9,1.7,3.5,3.6,4.7,5.8c-1.5-1.9-3.4-3.6-5.4-5c-2-1.4-4.1-2.5-6.4-3.4c-2.2-0.8-4.6-1.3-7-1.5c-0.6-0.1-1.2-0.1-1.8-0.1h-1.8
			c-1.2,0.1-2.4,0.2-3.6,0.4l-1.8,0.3c-0.3,0-0.6,0.1-0.9,0.2l-0.9,0.2l-1.7,0.5c-0.6,0.2-1.1,0.4-1.7,0.6c-1.1,0.4-2.2,0.9-3.3,1.5
			c-1,0.6-2.1,1.2-3.1,1.9C212.3,271,209,274.7,206.6,278.9L206.6,278.9z"/>
	</g>
	<g class="st7">
		<path class="st8" d="M255.4,272.6c-1.5-1.9-3.4-3.6-5.4-5c-2-1.4-4.1-2.5-6.4-3.4c-2.2-0.8-4.6-1.3-6.9-1.5
			c-0.6-0.1-1.2-0.1-1.8-0.1h-1.8c-1.2,0.1-2.4,0.2-3.6,0.4l-1.8,0.3c-0.3,0-0.6,0.1-0.9,0.2l-0.9,0.2l-1.7,0.5
			c-0.6,0.2-1.1,0.4-1.7,0.6c-1,0.3-1.9,0.8-2.8,1.2l-0.5,0.2l-1.1,0.6c-0.7,0.4-1.3,0.8-1.9,1.2c-4,2.8-7.3,6.5-9.7,10.7
			c1.7-4.8,4.7-9,8.7-12.1c0.7-0.6,1.5-1.1,2.2-1.6c0.5-0.3,1-0.6,1.5-0.9c3.2-1.7,6.6-2.9,10.2-3.4c5.1-0.9,10.3-0.2,15.1,1.8
			c2.3,1,4.5,2.4,6.4,4.1C252.6,268.4,254.2,270.4,255.4,272.6L255.4,272.6z"/>
	</g>
</g>
<path class="st4" d="M188.9,228.3c2.7,2.3,5.6,4.4,8.6,6.3c1.4,1,2.9,1.9,4.4,2.7c0.9,0.4,1.8,0.5,2.8,0.4c0.5,0,1-0.2,1.4-0.5
	c0.1-0.1,0.1-0.2,0.2-0.3c1.6-1,2.4-2.9,3.1-4.7c1.5-3.5,2.6-7.2,3.4-10.9c0.3-1.4,0.8-3.1,0.4-4.5c-0.3-0.8-0.7-1-1.2-1.6
	c-1.2-1.3-1.1-2.6-1.9-4.1c-0.2-0.4-0.5-0.8-0.8-1c-0.4-0.3-0.8-0.4-1.2-0.5c-2.3,0-2.8,4.4-3.2,5.9c-0.8,3.2-1.4,6.4-1.7,9.7
	c-0.3,2.9-0.4,5.9-0.2,8.9c-2.2-5-5-9.6-8.5-13.7c-1.2-1.5-3.2-4-5.5-3.6c-0.9,0.1-0.9,0.8-1.6,1.2c-1.4,0.8-2.5-0.5-3.8-0.1
	C178.6,219.2,187.5,227.1,188.9,228.3z"/>
<g class="st2">
	<path class="st8" d="M188.9,228.3c2.7,2.3,5.6,4.4,8.6,6.3c1.4,1,2.9,1.9,4.4,2.7c0.9,0.4,1.8,0.5,2.8,0.4c0.5,0,1-0.2,1.4-0.5
		c0.1-0.1,0.1-0.2,0.2-0.3c1.6-1,2.4-2.9,3.1-4.7c1.5-3.5,2.6-7.2,3.4-10.9c0.3-1.4,0.8-3.1,0.4-4.5c-0.3-0.8-0.7-1-1.2-1.6
		c-1.2-1.3-1.1-2.6-1.9-4.1c-0.2-0.4-0.5-0.8-0.8-1c-0.4-0.3-0.8-0.4-1.2-0.5c-2.3,0-2.8,4.4-3.2,5.9c-0.8,3.2-1.4,6.4-1.7,9.7
		c-0.3,2.9-0.4,5.9-0.2,8.9c-2.2-5-5-9.6-8.5-13.7c-1.2-1.5-3.2-4-5.5-3.6c-0.9,0.1-0.9,0.8-1.6,1.2c-1.4,0.8-2.5-0.5-3.8-0.1
		C178.6,219.2,187.5,227.1,188.9,228.3z"/>
</g>
<path class="st1" d="M195.1,212.5c2.1,7.2,4.6,14.3,6.6,21.5c0.1,0.2,0.4,0.1,0.3-0.1c-1.4-6.6-3.7-12.9-5.7-19.3
	c-1.1-3.2-1.7-6.4-2-9.7c-0.1-2.3,0.1-4.3-1.1-6.2c0-0.1-0.1-0.2-0.2-0.2c-0.1,0-0.2-0.1-0.3-0.1c-0.1,0-0.2,0-0.3,0.1
	c-0.1,0-0.2,0.1-0.2,0.2c-1.2,2,0.7,5.4,1.7,7.6C194.1,208.4,194.5,210.5,195.1,212.5L195.1,212.5z"/>
<path class="st1" d="M208.2,213.9c1.3,6.5,0.7,13.2,0.3,19.8c0,0,0,0.1,0,0.1c0,0,0.1,0,0.1,0c0,0,0.1,0,0.1,0s0-0.1,0-0.1
	c1.4-8.6,1.1-18.4-2.1-26.6c-0.3-0.7-2.2-5.2-3.5-4.1c-0.7,0.6,0.4,2,0.7,2.5c1.2,1.5,2.4,3,3.4,4.6l0,0
	C207.7,211.5,208,212.7,208.2,213.9z"/>
<path class="st1" d="M183.9,211.7c0.1,3,0.8,6,2,8.7c2.6,5.8,6.3,11.1,10.9,15.6c0.1,0.1,0.3-0.1,0.2-0.2
	c-4.1-4.7-8.2-9.7-10.6-15.6c-0.6-1.5-1.1-3.1-1.5-4.7c0-0.1-0.1-0.2-0.1-0.4c0-0.1,0,0,0-0.1c0.1-1.8,0.4-3.6,0.9-5.4
	c0.2-0.8,0.5-2.2-0.1-2.5C183.9,207.4,183.9,210.6,183.9,211.7z"/>
<path class="st4" d="M183.3,232.6c5.8,4.7,13.3,7.3,19.6,11.2c1.4,0.9,2.8,1.9,4.2,2.9c0.4,0.3,0.9,0.7,1.3,0.9
	c0.3,0.2,0.6,0.3,0.9,0.3c0.1,0,0.3,0,0.4-0.1c0.2-0.1,0.4-0.2,0.6-0.4c0.2-0.2,0.3-0.4,0.4-0.7c0.3-1,0.4-2.1,0.4-3.1
	c0.3-1.1,0.7-2.2,1-3.1c0.4-1.4,0.9-2.8,1.3-4.2c1-3,2.3-5.8,3.6-8.6c1.2-2.4,2-4.9,2.5-7.5c0.2-1.4,0.5-4-0.6-5.2
	c-1.1-1.1-1.9-0.4-2.5,0.5c-0.6,0.9-0.8,2-1.2,2.9c-0.8,1.4-1.7,1.4-2.8,2.2c-0.7,0.6-1.3,1.3-1.7,2.1c-0.4,0.8-0.6,1.7-0.7,2.6
	c-0.2,1.4-0.3,2.9-0.3,4.3c-0.2-1.4-0.4-2.7-0.7-4c-0.5-2.4-0.8-5.3-2.2-7.4c-0.4-0.7-1-1.3-1.7-1.7c-1.5-0.7-2.8-1.8-3.7-3.2
	c-0.9-1.5-2-4-4-4c-2,0-2.2,2-2.6,3.5c-0.7,2.7-3.3,3.8-3.3,7c0,2.5,1.3,5,2.5,7.1c0.9,1.7,2,3.3,3.1,4.9c-1.7-1.4-3.5-2.7-5.5-3.6
	c-0.8-0.5-1.8-0.8-2.7-0.8c-1.4,0.1-1.6,1-3.3,0.5c-1.2-0.4-3.9-1.8-4.9-0.1C179.8,229.5,182.2,231.7,183.3,232.6z"/>
<g class="st7">
	<path class="st8" d="M183.3,232.6c5.8,4.7,13.3,7.3,19.6,11.2c1.4,0.9,2.8,1.9,4.2,2.9c0.4,0.3,0.9,0.7,1.3,0.9
		c0.3,0.2,0.6,0.3,0.9,0.3c0.1,0,0.3,0,0.4-0.1c0.2-0.1,0.4-0.2,0.6-0.4c0.2-0.2,0.3-0.4,0.4-0.7c0.3-1,0.4-2.1,0.4-3.1
		c0.3-1.1,0.7-2.2,1-3.1c0.4-1.4,0.9-2.8,1.3-4.2c1-3,2.3-5.8,3.6-8.6c1.2-2.4,2-4.9,2.5-7.5c0.2-1.4,0.5-4-0.6-5.2
		c-1.1-1.1-1.9-0.4-2.5,0.5c-0.6,0.9-0.8,2-1.2,2.9c-0.8,1.4-1.7,1.4-2.8,2.2c-0.7,0.6-1.3,1.3-1.7,2.1c-0.4,0.8-0.6,1.7-0.7,2.6
		c-0.2,1.4-0.3,2.9-0.3,4.3c-0.2-1.4-0.4-2.7-0.7-4c-0.5-2.4-0.8-5.3-2.2-7.4c-0.4-0.7-1-1.3-1.7-1.7c-1.5-0.7-2.8-1.8-3.7-3.2
		c-0.9-1.5-2-4-4-4c-2,0-2.2,2-2.6,3.5c-0.7,2.7-3.3,3.8-3.3,7c0,2.5,1.3,5,2.5,7.1c0.9,1.7,2,3.3,3.1,4.9c-1.7-1.4-3.5-2.7-5.5-3.6
		c-0.8-0.5-1.8-0.8-2.7-0.8c-1.4,0.1-1.6,1-3.3,0.5c-1.2-0.4-3.9-1.8-4.9-0.1C179.8,229.5,182.2,231.7,183.3,232.6z"/>
</g>
<path class="st10" d="M214.9,227.2C214.9,227.2,214.9,227.3,214.9,227.2C214.9,227.2,214.8,227.2,214.9,227.2z"/>
<path class="st5" d="M188.6,233.3c5.6,5.1,16.8,6.4,19.9,14v0.3c0.3,0.2,0.6,0.3,0.9,0.3c1.4-2.2,1.4-5,1.8-7.6
	c0.5-3.9,1.4-7.8,2.9-11.5c0-0.1-0.1-0.2-0.2-0.1c-1.4,2.8-2.4,5.8-3,8.8c-0.6,3.1-0.4,7-1.9,9.9c0-0.1,0-0.2,0-0.3
	c0.6-3.5-0.2-7.4-1.1-10.7c-1.1-4.4-2.8-8.6-4.4-12.8c0-0.2-0.3,0-0.3,0.1c1.2,4.1,2.6,8.3,3.7,12.4c0.8,2.5,1.3,5.2,1.5,7.8
	c-2.1-8.8-10.8-15.2-12.3-24.2c0,0,0-0.1-0.1-0.1c0,0-0.1,0-0.1,0c0,0-0.1,0-0.1,0c0,0-0.1,0.1-0.1,0.1c1.4,9.6,10.2,16.3,12.3,25.6
	c-0.5-0.8-1-1.5-1.7-2.2c-1.3-1.8-2.8-3.4-4.6-4.8c-2.8-2.2-6.1-3.6-8.8-6c-0.1-0.1-0.2,0-0.2,0.2c2,2.5,4.9,3.7,7.4,5.4
	c1.5,1,2.9,2.2,4.2,3.6c-0.8-0.6-1.7-1.1-2.5-1.6c-4.4-2.5-9.1-4.1-13.3-7.1c0,0,0,0-0.1,0c0,0,0,0-0.1,0c0,0-0.1,0-0.1,0.1
	s0,0.1,0,0.1C188.6,233.2,188.6,233.3,188.6,233.3L188.6,233.3z"/>
<path class="st5" d="M216.2,222.3c0,1-0.2,2-0.7,2.9c0,0.1-0.2,0-0.1,0c0.3-0.9,0.5-1.8,0.5-2.8
	C215.9,222.2,216.1,222.2,216.2,222.3z"/>
<path class="st5" d="M196.3,216.8c0,0.5-0.1,1.1-0.1,1.6c0,0.2-0.3,0.2-0.3,0c-0.2-0.6-0.1-1.1,0.1-1.7
	C196,216.6,196.2,216.6,196.3,216.8z"/>
<path class="st5" d="M186.5,230.9c0.2,0.2,0.5,0.4,0.7,0.6c0,0,0,0,0,0.1c0,0,0,0,0,0.1c0,0,0,0-0.1,0c0,0,0,0-0.1,0
	c-0.3-0.1-0.6-0.3-0.8-0.6C186.1,231,186.4,230.8,186.5,230.9z"/>
<path class="st9" d="M212.4,243.9c-0.7,2.5-1.7,4.9-0.9,7.6c0.1,0.2-0.2,0.4-0.3,0.2c-1-1.5-8.4-6-7.8-7.3c0.4-0.8,2.4,0.6,2.9-0.5
	c0.1-0.7,0.1-1.3,0-2c0-0.7-0.1-1.4-0.1-2c0-0.7,0.2-1.4,0.7-1.5c0.6-0.1,1.2,0.7,1.5,1.3c0.3,0.6,0.5,1,0.7,1.5
	c0.2,0.5,0.6,1.6,1.2,0.9c0.6-0.7,0.8-1.5,1.5-1.9C213.6,239.2,212.6,243.2,212.4,243.9z"/>
<path class="st9" d="M219,264.3c-0.5,0.3-1,0.6-1.5,0.9l-0.1-0.2c-1.6-3.7-3.6-7.3-5.3-11c-1.6-3.6-2.6-7.4-3.2-11.2c0,0,0-0.1,0,0
	c1.2,6.9,5.7,13.2,8.9,19.2C218.3,262.7,218.7,263.5,219,264.3z"/>
<path class="st9" d="M216.7,262.7c0,0-1-10.5,0.7-16c1.7-5.4,7.7-12.7,7.7-12.7c1.4,5.1,1.4,10.5-0.1,15.5
	C223.5,254.6,220.6,259.2,216.7,262.7L216.7,262.7z"/>
<path class="st13" d="M368.2,428.7c2.3,0.7,66.5,0.6,68.9-1c0.9-0.6,1.4-9.9,1.8-21.3c0.1-2.5,0.1-5,0.2-7.5c0-3,0.1-6.1,0.1-9.1
	c0.1-13.4-0.1-25.2-0.1-25.2h-41.8v25.2v9.1l0.2,7.5c0,0-24.5,11-27.1,13.1C367.9,421.6,366.1,428,368.2,428.7z"/>
<path class="st1" d="M439,404c0,0.8,0,1.7-0.1,2.5c-0.3,11.3-0.8,20.7-1.8,21.3c-2.5,1.6-66.7,1.7-68.9,1c-2.3-0.7-0.3-7.2,2.2-9.2
	c1.3-1.1,9-4.7,15.8-7.9c-2.1,1.9-4.9,4.7-4.1,5.7c2.1,2.7,43.7-3,54.9-12C437.7,404.8,438.3,404.4,439,404L439,404z"/>
<path class="st14" d="M453,186.4c0,0-11.3,111.8-11.6,113.2c0,0.2-0.1,2.3-0.2,5.8c-0.6,19.3-2.1,79.3-2.1,79.3h-46.1
	c0,0,3-71.1,4.7-87.7c2.2-21.2,16.1-110.6,16.1-110.6H453z"/>
<path class="st1" d="M436,303.5c1.4-24.2,3.6-48.4,6.4-72.5c1.6-13.6,3.6-27.1,5.5-40.7c0-0.1,0.2-0.1,0.2,0
	c-3.6,24.1-6.1,48.4-8.3,72.6c-2.1,24.3-3.7,48.5-4.7,72.8c-0.6,13.8-1,27.6-1.4,41.3c0,0.1,0,0.1-0.1,0.2c0,0-0.1,0.1-0.2,0.1
	c-0.1,0-0.1,0-0.2-0.1c0,0-0.1-0.1-0.1-0.2C433.8,352.6,434.5,328,436,303.5z"/>
<path class="st1" d="M395.9,377.3c1.2-0.2,15.2-0.4,20.6-0.4c4.6,0,19,0.4,20.6,0.4c0.1,0,0.1,0.1,0,0.1c-1.9,0.3-10.1,0.5-18.9,0.5
	c-5.4,0-21.6-0.4-22.3-0.5c0,0,0,0,0,0C395.9,377.4,395.9,377.4,395.9,377.3C395.9,377.3,395.9,377.3,395.9,377.3
	C395.9,377.3,395.9,377.3,395.9,377.3L395.9,377.3z"/>
<path class="st1" d="M453,186.4c0,0-11.3,111.8-11.6,113.2c0,0.2-0.1,2.3-0.2,5.8l-21.7-119L453,186.4z"/>
<path class="st13" d="M455.9,429.2c2.4,0.1,64.4-16.7,66.3-18.8c0.7-0.8-1.2-10-3.8-21c-0.6-2.4-1.1-4.9-1.8-7.4
	c-0.9-3.1-1.9-6.1-2.8-9.1c-4.1-12.8-8.1-23.5-8.1-23.5l-39.3,10.5l7,23.3l2.9,9.6l2.2,7.2c0,0-20.9,17.1-22.8,19.6
	C453.7,422.2,453.5,429,455.9,429.2z"/>
<path class="st1" d="M522.2,410.3c-2,2.1-63.9,19-66.3,18.8c-2.4-0.1-2.1-6.9-0.2-9.5c1.2-1.6,9.3-8.5,15.5-13.6
	c-1.8,2.1-4.6,5.7-3.7,6.7c2.4,2.3,41-8.6,52-19C521.5,402.7,522.8,409.6,522.2,410.3z"/>
<path class="st14" d="M413.8,186.4c0,0,3,16.1,14.3,24.4c0,0,15.9,87.2,17.9,97.1c3.9,19.2,20.2,73.9,20.2,73.9l47.1-14.4
	c0,0-20.3-66.1-23-73c-1.5-3.8-12.9-76.1-12.6-77.8c2.8-20.7-7-30.3-7-30.3L413.8,186.4z"/>
<path class="st1" d="M451.2,190c0.9,3.2,2.9,6.1,5.6,8.1c3,2.1,6.6,3.4,10.2,3.5c0.6,0,0.7,1,0,1c-7.5,0-15.1-4.8-16.2-12.6
	C450.8,189.9,451.1,189.8,451.2,190z"/>
<path class="st1" d="M420.9,205.6c2.7,1.1,5.3,2.5,7.8,4.1c2.6,1.6,4.9,3.5,7.5,5.2c0,0,0,0,0,0.1c0,0,0,0,0,0.1c0,0,0,0,0,0
	c0,0,0,0-0.1,0c-2.6-1.5-5.3-2.8-7.9-4.4c-2.6-1.4-5.1-3.1-7.4-4.9C420.7,205.8,420.8,205.6,420.9,205.6z"/>
<path class="st1" d="M419.9,190c0.4,1.7,0.9,3.4,1.4,5.1c0.5,1.7,0.8,3.2,1.2,4.8c0.4,1.5,1.3,2.9,2.5,4c0.7,0.6,1.4,1,2.1,1.6
	l1.2,0.8c0-0.2-0.1-0.5-0.2-0.7c-0.1-0.7-0.3-1.3-0.4-2c-0.3-1.4-0.6-2.9-0.9-4.4c-0.6-2.9-1.1-5.8-1.8-8.6c0,0,0,0,0-0.1
	c0,0,0,0,0.1,0c0,0,0,0,0.1,0c0,0,0,0,0,0.1c0.8,2.8,1.8,5.6,2.5,8.4c0.4,1.4,1.8,8.2,1.9,8.7c0.1,0.5,0.1,1,0.2,1.5
	c0.1,0.5,0.1,1,0.1,1.5c0,0.1-0.2,0.1-0.2,0c-0.2-0.5-0.4-1-0.5-1.5c-0.1-0.5-0.3-1-0.4-1.5l-0.1-0.5c-0.7-0.4-1.4-0.9-2-1.3
	c-0.6-0.4-1.4-0.9-2.1-1.4c-1.2-1-2.2-2.3-2.7-3.8c-0.5-1.6-0.8-3.2-1-4.9c-0.3-2-0.6-3.9-0.9-5.9
	C419.7,189.9,419.8,189.9,419.9,190z"/>
<path class="st1" d="M467.8,371.9c1.1-0.5,14.5-4.8,19.6-6.4c4.4-1.3,18.3-5.2,19.8-5.7c0.1,0,0.1,0.1,0,0.1c-1.7,0.8-9.5,3.4-18,6
	c-5.2,1.6-20.8,6-21.5,6.1c0,0,0,0-0.1,0c0,0,0,0,0-0.1C467.8,372,467.8,372,467.8,371.9C467.8,371.9,467.8,371.9,467.8,371.9z"/>
<path class="st1" d="M493.3,323.3c-1.9-5.4-3.8-10.8-5.6-16.3c-1.8-5.3-3.3-10.8-4.4-16.3c-2.2-11.3-4.2-22.6-6-34
	c-0.9-5.7-1.8-11.5-2.6-17.3c-0.4-2.8-0.8-5.7-1.2-8.6c-0.4-2.8-0.8-5.5-1-8.3c-0.6-10.3,3.1-21.3-1.4-31.1
	c-0.5-1.1-1.1-2.1-1.8-3.1c-0.1-0.1-0.2,0-0.1,0.1c6,9.4,2.7,20.7,2.5,31.1c0.1,5.7,0.7,11.3,1.7,16.9c0.8,5.6,1.7,11.3,2.5,16.9
	c1.7,11.3,3.7,22.6,5.8,33.8c0.9,5.5,2.2,11,3.8,16.4c1.7,5.4,3.7,10.8,5.5,16.1c3.8,10.9,13.5,38,14,39.4c0,0.1,0.2,0.1,0.2-0.1
	C501.5,348.1,497.1,334.3,493.3,323.3z"/>
<path class="st13" d="M432.8,126.5c-10.8,11.4-37,24.1-45.7,24.1c-9.8,0-26.4-13.7-38.9-25.2c-2.7-2.5,14.1-27.3,17.2-24.7
	c7.5,6.5,25.2,24.3,28,24.7c4,0.6,20.1-3.7,32.9-7.3C440.5,114,438.3,120.7,432.8,126.5z"/>
<path class="st13" d="M357.1,127.8c3.5,0,12.5-21.4,10.7-24.5c-0.7-1-1.5-1.9-2.5-2.7l0,0c-2.2-4.5-3.7-9.3-4.5-14.3
	c-0.7-5.9-1.2-14.8-4.4-14.6c-4.7,0.4-5.5,11.7-5.6,18.2c-3.1-1.8-5.9-3-7.8-3.1c-6.3-0.4-11.7,27.6-6.9,31.9
	C341,123.1,353.6,127.8,357.1,127.8z"/>
<path class="st14" d="M329.4,124.1c0,0,7,1.2,10.4-2.4c10.7-11.2-1.4-46.2-7.4-44.8c-5.9,1.4-11.6,23.6-11.6,23.6L329.4,124.1z
	 M329.6,120.7l-6.7-18.4c0,0,4.7-19.3,9.3-20.4c4.6-1.1,13.8,28.2,5.4,36.9C335.1,121.6,329.6,120.7,329.6,120.7L329.6,120.7z"/>
<path class="st9" d="M271,106.7l2.1,10.9l-9.3,5.4L271,106.7z"/>
<path class="st9" d="M306.3,149.6l36.5-16.1l-29.9-51.4l-23.3,10.6L306.3,149.6z"/>
<path class="st14" d="M312.9,82.1l2-5.6l-30.1,12.9l4.7,3.2L312.9,82.1z"/>
<path class="st14" d="M298,121.2l3.9,13.4l-31-15.7l1.8-3.8L298,121.2z"/>
<path class="st0" d="M267.9,111.6c-3.4-3.3-10.8-3.6-10.9-0.5c0,1.7,2.7,2.2,5.9,1C264.5,111.6,266.2,111.4,267.9,111.6L267.9,111.6
	z"/>
<path class="st0" d="M262.8,122.8c-2.7,1.2-4.7,5.4-2.9,6.1c1,0.4,1.9-1,2-3.2C262,124.7,262.3,123.7,262.8,122.8L262.8,122.8z"/>
<path class="st0" d="M263.9,117c-1.8-0.4-3.6-0.3-5.4,0.1c-1.8,0.4-3.5,1.2-5,2.2c-3.9,2.8-6.1,8.6-2.5,10c1.4,0.6,3.4-0.6,5-2.9
	C258.4,122.9,259.8,118.4,263.9,117z"/>
<path class="st13" d="M352.8,89.4c0.9,3.2-3.3,2.5-3.3,2.5s5.9,2.5,5.6,6.1c-0.3,3.7-5.4,2.5-5.8,2.5c0.3,0.1,5.7,2.6,5,6.1
	c-0.7,3.6-5.7,1.8-6,1.7c0.3,0.2,3.5,3.2,2.5,5.8c-2,4.5-10.6-2.8-14.5-2.3c0,0,0.1,6.8,0,7c0,0-8.3-6.8-8.7-12.1
	c-0.1-0.8,0.1-1.6,0.6-2.2c0.4-0.7,1.1-1.1,1.9-1.4c0,0-2.9-1.9-2.5-4.7c0.2-1.5,2.8-2.5,2.8-2.5c-0.6-0.5-1.1-1.1-1.4-1.8
	c-0.3-0.7-0.4-1.5-0.3-2.3c0.4-2,2.9-2.7,2.9-2.7s-1.5-2.6-0.4-4.5C333.3,80.7,350.8,82.6,352.8,89.4z"/>
<path class="st1" d="M331.8,88.9C331.8,88.9,331.7,88.8,331.8,88.9c6.2-0.9,12.4,0.1,18,2.9c0.2,0.1,0.1,0.4-0.1,0.4
	C343.9,90.3,337.8,89.2,331.8,88.9z"/>
<path class="st1" d="M330.1,95.8c0,0,0-0.1,0-0.1c6.8-0.9,13.7,0.8,19.4,4.5c0.2,0.1,0.2,0.5,0,0.3
	C345.5,98.1,335.8,95.9,330.1,95.8z"/>
<path class="st1" d="M348.6,108.6c-5.6-3.7-11.8-5.1-18.4-5.7c-0.1,0-0.1-0.1,0-0.1c3.3-0.6,7.5,0.2,10.7,1.1c3,0.8,5.7,2.3,7.9,4.5
	C348.9,108.5,348.8,108.7,348.6,108.6z"/>
<path class="st1" d="M349.6,91.8c0.2,0.1-0.2,0.3,0,0.4c0.9,0.5,5.8,4,5.1,6c-0.5,1.6-3.1,2-4.1,1.8l-2.6-0.6l2.3,1.4
	c1,0.6,1.9,1.4,2.7,2.4c0.4,0.4,0.7,0.9,0.8,1.4c0.2,0.5,0.2,1.1,0.2,1.6c-0.1,0.5-0.3,1-0.6,1.4c-0.4,0.4-0.9,0.6-1.4,0.6
	c-1.2,0.1-2.3-0.1-3.4-0.6l-3-1.2l2.4,2.1c0.7,0.6,1.2,1.3,1.7,2c0.5,0.7,0.8,1.5,0.8,2.3c0,0.4-0.1,0.7-0.3,1.1
	c-0.2,0.3-0.5,0.6-0.8,0.7c-0.8,0.3-1.7,0.3-2.5,0.1c-1.8-0.4-3.6-1-5.3-1.7c-0.9-0.3-1.8-0.7-2.6-1c-0.9-0.3-1.8-0.5-2.8-0.4
	c0.9,0,1.8,0.3,2.7,0.7c0.9,0.4,1.7,0.7,2.6,1.1c1.7,0.9,3.5,1.5,5.3,2c1,0.3,2,0.3,3,0c0.5-0.2,1-0.6,1.3-1c0.3-0.5,0.5-1,0.5-1.6
	c0-1-0.3-2.1-0.9-2.9c-0.5-0.8-1.2-1.6-1.9-2.2l-0.6,0.9c1.2,0.6,2.6,0.8,4,0.7c0.8-0.1,1.5-0.4,2-1c0.5-0.5,0.8-1.2,0.9-2
	c0.1-0.7,0-1.4-0.2-2.1c-0.2-0.7-0.6-1.3-1.1-1.8c-0.9-1-1.9-1.9-3-2.6l-0.4,0.9c1.3,0.2,4.3,0.1,5.4-2.3
	C356.8,95.2,350.7,92.3,349.6,91.8z"/>
<path class="st1" d="M349.5,91.8c0.7,0,1.3-0.1,2-0.4c0.3-0.1,0.5-0.2,0.7-0.4c0.2-0.2,0.3-0.4,0.4-0.7c0-0.6-0.1-1.2-0.4-1.7
	c-0.3-0.6-0.6-1.2-1-1.8c0.6,0.4,1.2,0.8,1.6,1.4c0.5,0.6,0.8,1.4,0.7,2.2c-0.1,0.4-0.3,0.8-0.6,1.2c-0.3,0.3-0.7,0.5-1.1,0.5
	C350.9,92.3,350.2,92.2,349.5,91.8L349.5,91.8z"/>
<path class="st0" d="M367.5,101.3l-11,39.6c0,0,20.7,10.5,29.5,10.7c8.8,0.2,34.1-11.5,47.8-25.1c5.3-5.3,6.1-12.5-6.8-9.3
	c-12.9,3.2-30.7,6.8-32.1,6.5C393.5,123.4,367.5,101.3,367.5,101.3z"/>
<path class="st15" d="M373.8,107.9c-1,2.8-1.7,5.7-2.5,8.5c-0.7,2.8-1.5,5.7-2.3,8.6c-1.4,5.7-2.7,11.5-4,17.3c0,0,0,0,0,0
	c0,0,0,0,0.1,0c0,0,0,0,0.1,0c0,0,0,0,0,0c1.7-5.7,3.3-11.3,4.8-17.1c0.7-2.9,1.4-5.7,2.1-8.6c0.7-2.9,1.4-5.8,1.9-8.7c0,0,0,0,0,0
	c0,0,0,0,0,0c0,0,0,0,0,0c0,0,0,0,0,0C373.9,107.8,373.9,107.8,373.8,107.9C373.8,107.8,373.8,107.8,373.8,107.9
	C373.8,107.8,373.8,107.8,373.8,107.9C373.8,107.8,373.8,107.8,373.8,107.9L373.8,107.9z"/>
<path class="st4" d="M414.7,162.2l-2.9,30c0,0,50.6-1.8,62.6-3.2c0,0-14.6-55.1-28.2-68.5c-6.8-6.7-14.4-5.8-19-0.7
	c-1.2,1.3-14.9,21.4-16,28.8C410.2,155.2,414.7,162.2,414.7,162.2z"/>
<path class="st1" d="M441.3,79.1c1.6,2.3,13.6,8,19.9-2.2c6.3-10.3-6.7-23.2-16.8-16C437.5,65.8,437.9,74.2,441.3,79.1z"/>
<path class="st13" d="M440.3,118.6c-0.3,1-5.8,7.2-10.4,6.5c-1.5-0.2-0.7-8.5-0.7-8.5l-0.1-0.6l-1.1-8.8l10.7-5.5l1.5-0.7
	c0,0,0.2,2.5,0.3,5.4c0,0.1,0,0.3,0,0.4v0.5l0.1,1.4c0,0.4,0,0.7,0,1.1c0,0.4,0,0.7,0,1.1C440.7,113.4,440.6,116,440.3,118.6
	L440.3,118.6z"/>
<path class="st1" d="M440.5,106.4c-1.1,2.3-2.7,4.4-4.6,6.1c-2,1.7-4.3,2.9-6.7,3.6l-1.1-8.8l10.7-5.5l1.5-0.7
	C440.2,101,440.3,103.4,440.5,106.4z"/>
<path class="st13" d="M417.6,92.4c-2.8,15.2,6,18.6,9.3,19.2c3,0.5,13.2,2,17.6-12.8c4.4-14.9-1.8-21-8.6-22.6
	C429.1,74.6,420.3,77.2,417.6,92.4z"/>
<path class="st1" d="M420.2,90.1c0.3,0,0.7,0,1-0.1c0.4,0,0.8-0.1,1.1-0.3c0.1-0.1,0.1-0.2,0.1-0.3c0-0.1,0-0.2-0.1-0.3
	c-0.2-0.2-0.4-0.3-0.6-0.4c-0.2-0.1-0.5-0.1-0.7-0.1c-0.5,0-1,0.2-1.3,0.6c-0.1,0.1-0.1,0.2-0.1,0.3c0,0.1,0,0.2,0.1,0.3
	c0,0.1,0.1,0.2,0.2,0.2C420,90,420.1,90.1,420.2,90.1L420.2,90.1z"/>
<path class="st1" d="M430.5,91.6c-0.4-0.1-0.7-0.2-1-0.3c-0.4-0.1-0.7-0.3-1-0.5c-0.1-0.1-0.1-0.2-0.1-0.3c0-0.1,0.1-0.2,0.2-0.3
	c0.2-0.1,0.4-0.2,0.7-0.3c0.2,0,0.5,0,0.7,0.1c0.5,0.1,0.9,0.4,1.2,0.8c0.1,0.1,0.1,0.2,0.1,0.3c0,0.1,0,0.2-0.1,0.3
	c-0.1,0.1-0.2,0.2-0.3,0.2C430.7,91.6,430.6,91.6,430.5,91.6L430.5,91.6z"/>
<path class="st1" d="M427.8,94.8C427.8,94.8,427.9,94.8,427.8,94.8c-0.1,1.1-0.1,2.4,0.8,2.8C427.4,97.3,427.5,95.7,427.8,94.8z"/>
<path class="st1" d="M428.9,93.8c1.7,0.1,1.4,3.5-0.2,3.4C427.1,97.1,427.5,93.7,428.9,93.8z"/>
<path class="st1" d="M429.6,94.1c0.3,0.2,0.5,0.6,0.9,0.7c0.4,0.1,0.7-0.2,1.1-0.6c0,0.7-0.4,1.2-1.1,1.3c-0.7,0.1-1-0.6-1.1-1.2
	C429.3,94.1,429.4,94,429.6,94.1z"/>
<path class="st1" d="M422,93.8C422,93.8,421.9,93.8,422,93.8c-0.1,1.1-0.4,2.3-1.3,2.5C421.8,96.4,422.1,94.9,422,93.8z"/>
<path class="st1" d="M421.2,92.6c-1.7-0.3-2.1,3.1-0.6,3.4C422.2,96.3,422.6,92.9,421.2,92.6z"/>
<path class="st1" d="M420.4,92.8c-0.3,0.1-0.6,0.4-0.9,0.4c-0.3,0-0.6-0.4-0.8-0.8c0,0,0,0-0.1,0c-0.1,0.6,0,1.3,0.6,1.5
	c0.6,0.2,1-0.3,1.2-0.9C420.6,92.9,420.6,92.7,420.4,92.8z"/>
<path class="st1" d="M427.3,102.9c-0.3,0.2-0.5,0.6-0.9,0.6c-0.4,0-0.8-0.1-1.1-0.3l0,0c0.1,0.2,0.3,0.4,0.6,0.5
	c0.2,0.1,0.5,0.2,0.7,0.1c0.2,0,0.4-0.2,0.6-0.3c0.2-0.2,0.3-0.4,0.3-0.6C427.4,102.9,427.3,102.9,427.3,102.9z"/>
<path class="st1" d="M423.3,98.7c0,0-0.4,1.5-0.5,2.3c0,0,0.2,0.1,0.4,0.2c0.6,0.2,1.3,0.2,1.9,0c0.6-0.2,1.2-0.5,1.6-1
	c0.1,0,0-0.1-0.1-0.1c-1,0.5-2.2,0.7-3.3,0.6c0-0.2,0.7-2.6,0.6-2.7c-0.6,0-1.2,0.1-1.7,0.2c0.7-3.2,1.9-6.3,2.6-9.6c0,0,0,0,0-0.1
	s0,0-0.1,0c0,0,0,0-0.1,0c0,0,0,0-0.1,0c-1.4,3.3-2.5,6.7-3.2,10.2C421.4,99.2,423,98.8,423.3,98.7z"/>
<path class="st1" d="M423.4,100.6c0.3,0.7,0.8,1.3,1.4,1.7c0.3,0.2,0.7,0.3,1.1,0.3c0.9,0,1.1-0.8,1.1-1.5c0-0.4-0.1-0.7-0.1-1.1
	C425.8,100.6,424.5,100.7,423.4,100.6L423.4,100.6z"/>
<path class="st16" d="M424.8,102.2c0.3,0.2,0.7,0.3,1.1,0.3c0.9,0,1.1-0.8,1.1-1.5c-0.4-0.1-0.9,0-1.3,0.2
	C425.3,101.5,424.9,101.8,424.8,102.2L424.8,102.2z"/>
<path class="st1" d="M444.3,99c-1-0.5-1.8-1.3-2.4-2.2c-0.6-0.9-0.9-2-1-3.1c-2.6-1.3-4.9-3.2-6.5-5.6c0.1,0.3,0.8,2.6,1.1,3.8
	c-2.7-0.5-5.2-1.6-7.4-3.3c-2.2-1.7-3.9-3.9-5-6.4c-1.9,1.6-3.4,3.7-4.5,6c0,0,0.2-5.9,3.3-9.8c10.6-13.2,22.3,0.9,22.3,0.9
	s3.9,2.2,4.4,6.1C449.8,93.2,444.3,99,444.3,99z"/>
<path class="st1" d="M428.2,90c1.5,0.9,3.2,1.6,4.9,2l0,0c-2.7-0.8-5.1-2.4-7-4.6c-0.8-0.9-1.5-1.9-2-3c-0.6-1.1-1-2.4-1.2-3.7
	c0-0.1-0.1-0.1-0.1,0c0,1.3,0.2,2.6,0.6,3.9c0.5,1.2,1.2,2.3,2,3.3C426.3,88.7,427.2,89.5,428.2,90"/>
<path class="st13" d="M441.8,98.2c0,0,3.8-4.5,5.9-3.1c2.1,1.4-1.1,8.1-3.8,8.9c-0.3,0.1-0.7,0.2-1,0.1c-0.4,0-0.7-0.1-1-0.3
	c-0.3-0.2-0.6-0.4-0.8-0.7c-0.2-0.3-0.4-0.6-0.5-0.9L441.8,98.2z"/>
<path class="st1" d="M446.7,97.1C446.7,97.1,446.7,97.1,446.7,97.1c-0.9,0.4-1.6,0.9-2.3,1.6c-0.7,0.7-1.2,1.4-1.5,2.3
	c0.1-0.2,0.3-0.3,0.5-0.4c0.2-0.1,0.4-0.2,0.6-0.2c0.2,0,0.4,0,0.6,0.1c0.2,0.1,0.4,0.2,0.5,0.3c0,0,0,0.1-0.1,0.1
	c-0.3-0.1-0.6-0.2-1-0.1c-0.3,0.1-0.6,0.2-0.8,0.5c-0.4,0.4-0.7,0.9-1,1.3c-0.1,0.1-0.4,0-0.3-0.1
	C442.1,100.1,444.2,97.1,446.7,97.1z"/>
<path class="st0" d="M440.7,116.7c0,0-4.3,20.8-1.8,49.5c4.7,54.1,18.2,134,21.4,139.3c4.9,8.1,56.4,13.4,56.4,13.4
	c-10.6-45.3-24-89.8-40-133.5c0,0-10.6-30.5-14.3-38.6C448.3,116.3,440.7,116.7,440.7,116.7z"/>
<path class="st15" d="M488.9,229.7c-4.7,1.5-9.5,2.6-14.4,3.5c-6.8,1.1-13.7,1.5-15.6,1.8c-0.2,0-0.2,0.6,0,0.6
	c2.6-0.1,10.5-0.6,15.7-1.4c4.8-0.8,9.4-2,14-3.7c0.2,1.4,0.4,2.6,0.6,4c-4.7,1.7-13.7,4.8-29,5.3c-0.1-0.6-0.6-3.8-0.8-4.7
	c0-0.1-0.6-0.1-0.6,0.1c0,0.9,0.9,8.7,1.2,10.2c0.6,3.9,2.6,14.7,3.9,16.7c3,4.4,12.3,2.9,14.9,2.6c2.6-0.4,11-1.5,13.6-5
	c1.4-1.9,0.3-10.8-1.2-18.6C490.4,237.5,489.1,229.7,488.9,229.7z M479.3,263.8c-8.3,1.3-12.1,0.2-13.7-1.3
	c-1.8-1.8-2.5-5.3-3.2-9.1c-0.6-3-2-12.5-2-12.7c9.9,0.2,19.7-1.6,29-5.1c0.7,4.5,1.3,8.1,2.1,12.6c0.5,3.3,1.2,8.8-0.1,10.9
	C490.1,260.9,485.2,262.8,479.3,263.8L479.3,263.8z"/>
<path class="st13" d="M475.7,232.3c1.5,4.5-0.1,11.6,3.4,11.5c3.1-0.1,3.8-5.2,3.8-5.2s1.1,6,4.4,4.9c3.3-1.1,3-6.8,3-6.8
	s0.7,5,3.9,3.7c3.3-1.3,3.8-6.2,3.8-6.2s1.2,1.3,3.1-0.7c2.7-2.8,1.5-11.1-0.1-15.3c-1.6-4.2-10.7-18.4-12.1-20.5L461.8,208
	c0,0-0.5,8.8-0.3,13.3c0.3,4.5,5.3,19.1,9,18.1c3.7-1,0-11.2-0.4-14c-0.4-2.7,0.2-3.3,1.3-2.1C472.1,224,475,230.3,475.7,232.3z"/>
<path class="st1" d="M482.8,238.5c0.5-7.1-0.6-10.3-4-16.5c-0.1-0.1,0.1-0.2,0.2-0.1c3.9,5.8,5.7,9.6,4.1,16.7
	C483.1,238.8,482.8,238.7,482.8,238.5z"/>
<path class="st1" d="M490.2,237.1c-0.2-7.4-1.2-10.9-4.3-17.7c0-0.1,0.1-0.2,0.2-0.1c3.6,6.3,5.3,10.2,4.5,17.7
	C490.5,237.3,490.2,237.4,490.2,237.1z"/>
<path class="st1" d="M497.9,234.2c-0.7-7.2-1.7-11-5.5-17.2c0,0,0,0,0-0.1c0,0,0,0,0-0.1c0,0,0,0,0-0.1c0,0,0,0,0,0c0,0,0,0,0.1,0
	c0,0,0,0,0.1,0c0,0,0,0,0.1,0c0,0,0,0,0,0c4.5,5.9,5.8,10.7,5.5,17.3C498.1,234.6,498,234.6,497.9,234.2z"/>
<path class="st13" d="M450.2,125.4c16,21.8,37.1,67.8,39.9,75.1c1.9,5-26.6,15.1-27.4,11.5c-1-4.6-16-62-20-83.3
	C440.5,117.1,446.2,120.1,450.2,125.4z"/>
<path class="st0" d="M456.9,204.1l33.3-8.3c0,0-30.5-59.3-38.9-70.4c-8.6-11.2-10.1-4.9-8.6,7.1
	C444.4,145.6,456.9,204.1,456.9,204.1z"/>
<path class="st15" d="M485.6,192.1c-2.3,0.3-4.5,0.9-6.8,1.3c-2.2,0.5-4.5,1-6.7,1.5c-4.5,1-9,2.1-13.4,3.3c0,0,0,0,0,0
	c0,0,0,0,0,0.1s0,0,0,0.1c0,0,0,0,0,0c4.5-0.8,9-1.8,13.5-2.8c2.2-0.5,4.4-1,6.6-1.6c2.2-0.5,4.6-1,6.8-1.8c0,0,0,0,0.1,0
	c0,0,0,0,0-0.1C485.7,192.2,485.7,192.2,485.6,192.1C485.7,192.2,485.7,192.2,485.6,192.1L485.6,192.1z"/>
<path class="st15" d="M460.4,203.2c-0.6,0-3.2,0.3-3.3,0.3c0-0.3-1.7-10.9-2.1-13.1c-0.9-4.3-1.8-8.6-2.7-12.9
	c-1.8-8.7-3.8-17.3-5.7-26c-1.1-4.9-2.2-9.7-3.4-14.6c0-0.1-0.2-0.1-0.2,0.1c0.5,2.8,1,5.7,1.6,8.5c-0.5-1.2-1.1-2.5-1.6-3.7
	c0-0.1-0.2,0-0.2,0c0.5,1.2,0.9,2.6,1.4,3.9c0.2,0.7,0.5,1.4,0.8,2c1,5.1,2.1,10.2,3.1,15.3c1.8,8.7,3.5,17.4,5.4,26.1
	c0.5,2.4,2.8,15.1,2.9,15.1C456.8,204.1,459.9,203.5,460.4,203.2C460.5,203.3,460.5,203.2,460.4,203.2z"/>
<path class="st0" d="M428.8,118.3c0,0-9.1,12.1-11.8,50c-2.9,40.9-9.1,129.6-9.6,132.7c-0.5,3.1-13.3,10.5-13.3,10.5l19.7-149.2
	c0,0-3.7-7.4-3-12.8C411.6,142.3,425.3,119.9,428.8,118.3z"/>
<path class="st15" d="M419.2,131.4c-0.9,1.2-1.7,2.7-2.6,4l0.1-0.5c0.2-0.7,0.4-1.4,0.6-2.2c0,0-0.1-0.1-0.1,0
	c-0.3,0.7-0.5,1.4-0.7,2.2l-0.4,1.2c-0.5,0.8-2.1,4.3-2.5,5.1c-0.1,0.1,0.1,0.2,0.2,0.1c0.4-0.8,2.3-4.1,2.8-4.9
	c0.8-1.7,1.8-3.3,2.7-5L419.2,131.4z"/>
<path class="st15" d="M428.8,118.3c-3,3.9-6.1,7.9-9.1,11.8v-0.3l2.4,2.1l0.2,0.2l-0.2,0.2l-4.9,5.6l0.1-0.2c0,5.1,0,10.2,0,15.3
	c0,5.1-0.1,10.2-0.3,15.3c-0.1-5.1-0.2-10.2-0.3-15.3c0-5.1-0.1-10.2,0-15.3v-0.1l0.1-0.1l4.9-5.5v0.4l-2.3-2.2l-0.2-0.1l0.1-0.2
	C422.5,125.9,425.6,122.1,428.8,118.3z"/>
<path class="st15" d="M440.7,116.6c1.6,4.7,3.2,9.4,4.8,14.2l0.1,0.2h-0.3l-4.6,0.9l0.2-0.2l2.6,6.4v0.1c-0.7,4.9-1.4,9.9-2.1,14.9
	c-0.7,5-1.5,9.9-2.3,14.9c0.6-5,1.2-10,1.8-14.9c0.7-5,1.3-10,2.1-14.9v0.1l-2.6-6.4l-0.1-0.3h0.3l4.6-0.8L445,131
	C443.6,126.2,442.1,121.4,440.7,116.6z"/>
<path class="st9" d="M519.1,464.9H375.2v18.3h143.9V464.9z"/>
<path class="st9" d="M492.9,429.2H368.7v18.3h124.2V429.2z"/>
<path class="st9" d="M375.6,497.5H365l10.9-50h21.4L375.6,497.5z"/>
<path class="st14" d="M375.9,447.5h21.4l-5.4,12.5h-18.7L375.9,447.5z"/>
<path class="st9" d="M486,497.5h10.6l-10.9-50h-21.5L486,497.5z"/>
<path class="st14" d="M488.4,460h-18.7l-5.4-12.5h21.5L488.4,460z"/>
</svg>
